PathFileType	4	(X/Y/Z)	Walk2.trc
DataRate	CameraRate	NumFrames	NumMarkers	Units	OrigDataRate	OrigDataStartFrame	OrigNumFrames
200.000000	200.000000	7	67	mm	200.000000	619	955
Frame#	Times		LBHD		LowerBodyModelVer		LWRR		RLFC		LElbow		RTH2		RToe		LACR1		RMT5		C7		RTB2		LCAR		LUA1		RTB3		RMT1		RTB4		LWRU		RMMAL		LToe		RCAR		RCAL		LTH3		RASI		RFA1		LASI		PELOrigin		LLFC		RElbow		RElbowM		LPSI		RTH3		LTB2		RPSI		LHJC		MidPelvis		OPelvis		RHJC		SACR		XPelvis		YPelvis		ZPelvis		LFHD		LMMAL		LCAL		RBHD		RUA1		LMT5		T10		STRN		RACR1		LTH2		RMFC		RLMAL		RKJC		LLMAL		RFHD		CLAV		LTH4		RWRR		LTB1		LTH1		LTB3		LTB4		RTB1		LMT1		RTH1		RTH4
			X1	Y1	Z1	X2	Y2	Z2	X3	Y3	Z3	X4	Y4	Z4	X5	Y5	Z5	X6	Y6	Z6	X7	Y7	Z7	X8	Y8	Z8	X9	Y9	Z9	X10	Y10	Z10	X11	Y11	Z11	X12	Y12	Z12	X13	Y13	Z13	X14	Y14	Z14	X15	Y15	Z15	X16	Y16	Z16	X17	Y17	Z17	X18	Y18	Z18	X19	Y19	Z19	X20	Y20	Z20	X21	Y21	Z21	X22	Y22	Z22	X23	Y23	Z23	X24	Y24	Z24	X25	Y25	Z25	X26	Y26	Z26	X27	Y27	Z27	X28	Y28	Z28	X29	Y29	Z29	X30	Y30	Z30	X31	Y31	Z31	X32	Y32	Z32	X33	Y33	Z33	X34	Y34	Z34	X35	Y35	Z35	X36	Y36	Z36	X37	Y37	Z37	X38	Y38	Z38	X39	Y39	Z39	X40	Y40	Z40	X41	Y41	Z41	X42	Y42	Z42	X43	Y43	Z43	X44	Y44	Z44	X45	Y45	Z45	X46	Y46	Z46	X47	Y47	Z47	X48	Y48	Z48	X49	Y49	Z49	X50	Y50	Z50	X51	Y51	Z51	X52	Y52	Z52	X53	Y53	Z53	X54	Y54	Z54	X55	Y55	Z55	X56	Y56	Z56	X57	Y57	Z57	X58	Y58	Z58	X59	Y59	Z59	X60	Y60	Z60	X61	Y61	Z61	X62	Y62	Z62	X63	Y63	Z63	X64	Y64	Z64	X65	Y65	Z65	X66	Y66	Z66	X67	Y67	Z67

619	3.095	-723.22	1588.4	8.7083	9	2014	4	-844.42	811.84	-212.44	-782.18	492.73	187.71	-826.15	1094.7	-207.98	-700.29	632.96	180.13	-782.66	18.281	134.32	-669.67	1399.2	-96.971	-882.61	19.554	176.24	-756.86	1460.3	75.344	-846.78	260.03	167.69	-852.01	955.62	-214.75	-748.72	1212.8	-174.26	-882.94	183.26	90.089	-836.76	23.981	94.202	-837.69	258.92	93.737	-780.48	775.69	-198.67	-956.47	74.416	59.443	-258.11	123.62	-23.835	-575.88	796.79	351.19	-1044	46.532	76.938	-601.49	571.19	-87.002	-686.39	971.57	227.08	-688.05	914.46	368.66	-657.58	1009.5	-82.329	-671.98	990.51	72.377	-593.79	512.61	-74.558	-744.82	1066.6	372.74	-784.59	1064.2	296.27	-853.24	1022.4	20.81	-775.51	540.18	194.23	-492.92	320.63	-70.593	-861.13	1028.2	89.186	-751.14	918.9	-51.453	-764.58	1007.9	63.688	-671.98	990.51	72.377	-770.74	893.14	158.95	-857.19	1025.3	54.998	-593.5	976.01	77.911	-658.32	1068.6	83.209	-679.35	980.83	151.45	-545.19	1622.1	32.566	-422.64	93.822	25.05	-489.71	26.055	0.92556	-718.29	1584.8	145.44	-678.84	1226.2	320.32	-320.49	68.913	-71.784	-836.81	1204.9	71.285	-651.61	1170.1	88.663	-778.4	1349.4	227.09	-578.65	681.4	-56.033	-803.93	468.7	62.535	-985.3	77.841	136.76	-793.05	480.71	125.12	-444.65	72.787	-53.979	-542.56	1621.6	107.2	-571.35	1407.1	81.271	-629	660.63	-105.33	-588.59	838.08	299.69	-501.38	413.75	0.29906	-658.51	748.73	-118.08	-452.38	235.03	-3.4526	-477.67	324.33	-0.75535	-789.34	343.16	101.4	-290.2	88.243	1.1678	-758.93	725.96	235.25	-764.69	631.53	217.45
620	3.1	-718.07	1587.8	7.7703	9	2014	4	-839.42	811.22	-212.94	-779.23	492.31	187.29	-821	1094.1	-208.55	-696.51	632.11	179.59	-782.64	18.254	134.29	-664.45	1398.6	-97.771	-882.65	19.506	176.15	-751.67	1459.7	74.532	-845.23	259.92	167.45	-846.92	954.99	-215.3	-743.53	1212.1	-174.91	-881.97	183.36	89.917	-836.74	23.975	94.186	-836.22	258.77	93.46	-775.49	775.05	-199.17	-956.2	74.969	59.422	-256.33	120.1	-23.267	-571.53	796.14	350.74	-1043.9	47.536	76.962	-595.72	571.12	-86.909	-680.99	970.98	226.38	-683.46	914.07	367.95	-652.4	1008.8	-83.028	-666.7	989.88	71.676	-588.25	512.17	-74.339	-739.92	1066.3	371.84	-779.62	1064	295.33	-847.88	1021.9	20.294	-772.09	539.76	193.78	-488.82	319.46	-69.938	-855.83	1027.7	88.659	-746.01	918.32	-52.065	-759.28	1007.4	63.076	-666.7	989.88	71.676	-765.45	892.62	158.33	-851.86	1024.8	54.476	-588.22	975.32	77.149	-652.96	1068	82.484	-674	980.22	150.75	-540.08	1621.7	31.744	-421.15	91.783	25.696	-489.04	25.426	1.2667	-713.23	1584.3	144.5	-673.72	1225.8	319.53	-319.5	66.33	-71.546	-831.48	1204.3	70.736	-646.32	1169.4	87.936	-773.12	1349	226.37	-572.76	681.39	-56.274	-801.14	468.31	62.125	-984.97	78.536	136.76	-790.18	480.31	124.7	-443.29	71.401	-53.464	-537.49	1621.2	106.38	-564.3	1408.1	81.21	-623.13	660.54	-105.51	-584.07	837.41	299.19	-496.89	412.55	0.97385	-652.53	748.64	-118.52	-449.48	233.41	-2.7077	-473.96	322.94	-0.039558	-787.31	342.75	100.95	-288.6	84.859	1.3621	-754.52	725.45	234.67	-760.91	631.05	216.91
621	3.105	-712.9	1587.3	6.8205	9	2014	4	-834.34	810.6	-213.46	-776.22	491.92	186.84	-815.79	1093.5	-209.12	-692.67	631.28	179.03	-782.62	18.228	134.27	-659.23	1398.1	-98.587	-882.7	19.45	176.05	-746.46	1459.2	73.709	-843.64	259.86	167.2	-841.76	954.37	-215.86	-738.31	1211.5	-175.57	-880.97	183.52	89.744	-836.71	23.977	94.173	-834.71	258.66	93.182	-770.42	774.41	-199.69	-955.92	75.593	59.41	-254.57	116.53	-22.547	-567.24	795.5	350.28	-1043.7	48.646	76.991	-590.14	570.99	-86.761	-675.53	970.41	225.64	-678.91	913.71	367.22	-647.19	1008.2	-83.742	-661.36	989.29	70.951	-582.81	511.75	-74.14	-735.03	1066	370.92	-774.65	1063.8	294.38	-842.5	1021.5	19.773	-768.63	539.37	193.3	-484.72	318.35	-69.261	-850.5	1027.3	88.127	-740.83	917.79	-52.691	-753.93	1006.8	62.451	-661.36	989.29	70.951	-760.11	892.13	157.69	-846.5	1024.4	53.95	-582.9	974.66	76.355	-647.55	1067.3	81.739	-668.61	979.64	150.04	-534.95	1621.4	30.91	-419.7	89.79	26.359	-488.44	24.984	1.56	-708.14	1583.9	143.55	-668.59	1225.5	318.71	-318.52	63.732	-71.224	-826.13	1203.8	70.179	-640.99	1168.7	87.179	-767.82	1348.7	225.63	-566.85	681.3	-56.585	-798.3	467.96	61.703	-984.62	79.308	136.77	-787.26	479.94	124.27	-441.92	70.117	-52.947	-532.42	1620.9	105.55	-557.26	1409.1	81.136	-617.4	660.4	-105.62	-579.59	836.77	298.67	-492.51	411.39	1.6804	-646.61	748.52	-118.87	-446.64	231.85	-1.9367	-470.32	321.59	0.70498	-785.26	342.38	100.5	-287.02	81.452	1.6437	-750.05	724.96	234.06	-757.07	630.6	216.34
622	3.11	-707.72	1586.9	5.8603	9	2014	4	-829.17	809.99	-213.99	-773.13	491.57	186.39	-810.53	1092.8	-209.68	-688.77	630.5	178.44	-782.61	18.202	134.23	-653.99	1397.6	-99.417	-882.76	19.389	175.95	-741.22	1458.8	72.874	-841.98	259.86	166.96	-836.53	953.76	-216.41	-733.04	1210.9	-176.23	-879.93	183.75	89.572	-836.69	23.985	94.164	-833.16	258.62	92.904	-765.24	773.79	-200.24	-955.6	76.299	59.414	-252.78	112.94	-21.7	-563	794.88	349.79	-1043.5	49.881	77.027	-584.74	570.8	-86.566	-670.02	969.88	224.88	-674.39	913.38	366.46	-641.94	1007.6	-84.457	-655.98	988.73	70.209	-577.46	511.37	-73.967	-730.14	1065.8	369.99	-769.69	1063.6	293.41	-837.1	1021.1	19.248	-765.12	539.01	192.8	-480.61	317.32	-68.579	-845.14	1026.9	87.593	-735.61	917.32	-53.324	-748.55	1006.4	61.815	-655.98	988.73	70.209	-754.7	891.68	157.02	-841.12	1024	53.421	-577.53	974.03	75.54	-642.1	1066.8	80.981	-663.16	979.09	149.3	-529.8	1621.1	30.065	-418.25	87.876	27.024	-487.85	24.74	1.8111	-703.05	1583.5	142.6	-663.43	1225.2	317.88	-317.51	61.149	-70.831	-820.75	1203.4	69.613	-635.61	1168.1	86.401	-762.49	1348.4	224.88	-560.95	681.14	-56.959	-795.4	467.64	61.272	-984.25	80.172	136.8	-784.26	479.61	123.83	-440.48	68.953	-52.437	-527.33	1620.7	104.71	-550.25	1410.1	81.05	-611.8	660.22	-105.65	-575.16	836.15	298.14	-488.22	410.29	2.3987	-640.77	748.37	-119.14	-443.83	230.37	-1.1556	-466.73	320.31	1.4598	-783.16	342.05	100.03	-285.43	78.067	1.9988	-745.52	724.5	233.44	-753.15	630.19	215.76
623	3.115	-702.52	1586.5	4.8912	9	2014	4	-823.9	809.39	-214.53	-769.93	491.26	185.92	-805.22	1092.2	-210.25	-684.78	629.76	177.84	-782.61	18.173	134.2	-648.74	1397.1	-100.26	-882.82	19.323	175.83	-735.97	1458.3	72.028	-840.26	259.93	166.72	-831.23	953.15	-216.97	-727.74	1210.3	-176.9	-878.84	184.06	89.406	-836.66	23.999	94.158	-831.54	258.64	92.629	-759.97	773.19	-200.8	-955.25	77.099	59.437	-250.95	109.36	-20.758	-558.81	794.28	349.29	-1043.3	51.26	77.073	-579.51	570.56	-86.334	-664.46	969.39	224.08	-669.9	913.08	365.68	-636.66	1007.1	-85.165	-650.56	988.22	69.456	-572.22	511.03	-73.825	-725.26	1065.7	369.03	-764.74	1063.5	292.42	-831.69	1020.7	18.717	-761.53	538.69	192.28	-476.5	316.39	-67.91	-839.75	1026.5	87.057	-730.34	916.91	-53.955	-743.14	1005.9	61.172	-650.56	988.22	69.456	-749.24	891.29	156.33	-835.72	1023.6	52.887	-572.11	973.46	74.711	-636.6	1066.3	80.216	-657.67	978.59	148.55	-524.63	1620.8	29.208	-416.77	86.068	27.676	-487.24	24.694	2.0234	-697.93	1583.2	141.63	-658.25	1224.9	317.02	-316.43	58.602	-70.378	-815.36	1203	69.039	-630.2	1167.6	85.608	-757.13	1348.1	224.13	-555.09	680.92	-57.385	-792.42	467.36	60.834	-983.83	81.14	136.84	-781.17	479.31	123.38	-438.95	67.918	-51.945	-522.22	1620.4	103.86	-543.27	1411.2	80.951	-606.35	660	-105.63	-570.79	835.55	297.6	-484.01	409.27	3.109	-635.02	748.21	-119.34	-441.04	228.99	-0.38235	-463.18	319.12	2.2062	-780.98	341.76	99.562	-283.82	74.74	2.4137	-740.93	724.06	232.8	-749.15	629.81	215.15
624	3.12	-697.29	1586.2	3.9152	9	2014	4	-818.55	808.8	-215.08	-766.6	490.98	185.44	-799.85	1091.6	-210.81	-680.7	629.07	177.21	-782.61	18.141	134.16	-643.49	1396.6	-101.12	-882.9	19.255	175.7	-730.69	1458	71.173	-838.45	260.08	166.48	-825.86	952.56	-217.52	-722.39	1209.8	-177.58	-877.69	184.46	89.247	-836.64	24.017	94.158	-829.85	258.73	92.358	-754.6	772.6	-201.4	-954.84	78.006	59.484	-249.09	105.82	-19.748	-554.68	793.69	348.76	-1043	52.803	77.132	-574.44	570.29	-86.076	-658.86	968.95	223.25	-665.45	912.82	364.88	-631.34	1006.6	-85.854	-645.1	987.78	68.697	-567.08	510.75	-73.718	-720.38	1065.6	368.06	-759.8	1063.5	291.41	-826.26	1020.5	18.178	-757.85	538.4	191.75	-472.37	315.55	-67.272	-834.34	1026.2	86.52	-725.01	916.57	-54.58	-737.7	1005.6	60.523	-645.1	987.78	68.697	-743.72	890.97	155.61	-830.3	1023.3	52.349	-566.65	972.96	73.876	-631.07	1065.8	79.451	-652.14	978.14	147.8	-519.44	1620.6	28.341	-415.24	84.383	28.298	-486.59	24.832	2.1989	-692.78	1582.9	140.65	-653.06	1224.7	316.15	-315.3	56.111	-69.882	-809.94	1202.7	68.458	-624.74	1167.1	84.806	-751.75	1347.9	223.36	-549.27	680.65	-57.848	-789.32	467.11	60.391	-983.37	82.226	136.9	-777.96	479.04	122.91	-437.33	67.01	-51.483	-517.09	1620.3	103	-536.32	1412.3	80.839	-601.04	659.77	-105.55	-566.47	834.99	297.04	-479.85	408.34	3.7928	-629.38	748.04	-119.46	-438.25	227.73	0.36534	-459.67	318.04	2.9259	-778.72	341.52	99.103	-282.19	71.498	2.8746	-736.29	723.65	232.15	-745.05	629.46	214.52
625	3.125	-692.04	1585.9	2.9338	9	2014	4	-813.1	808.22	-215.64	-763.11	490.74	184.94	-794.41	1091	-211.37	-676.52	628.43	176.56	-782.62	18.105	134.12	-638.21	1396.3	-101.98	-882.99	19.189	175.56	-725.4	1457.7	70.309	-836.53	260.3	166.26	-820.41	951.98	-218.07	-716.99	1209.2	-178.25	-876.46	184.95	89.099	-836.61	24.038	94.165	-828.06	258.9	92.094	-749.13	772.04	-202.01	-954.38	79.034	59.563	-247.21	102.35	-18.701	-550.6	793.13	348.21	-1042.7	54.533	77.208	-569.52	570.01	-85.805	-653.22	968.57	222.39	-661.03	912.59	364.06	-625.97	1006.2	-86.519	-639.6	987.4	67.936	-562.03	510.54	-73.647	-715.5	1065.5	367.06	-754.86	1063.5	290.39	-820.83	1020.3	17.63	-754.05	538.14	191.22	-468.23	314.82	-66.681	-828.92	1025.9	85.982	-719.62	916.32	-55.195	-732.24	1005.3	59.871	-639.6	987.4	67.936	-738.15	890.71	154.86	-824.87	1023.1	51.806	-561.16	972.52	73.041	-625.5	1065.4	78.688	-646.58	977.76	147.05	-514.23	1620.5	27.462	-413.67	82.831	28.875	-485.9	25.126	2.3386	-687.61	1582.7	139.67	-647.85	1224.5	315.26	-314.11	53.687	-69.362	-804.52	1202.4	67.871	-619.24	1166.7	84	-746.35	1347.7	222.59	-543.54	680.36	-58.329	-786.08	466.89	59.949	-982.85	83.446	136.99	-774.6	478.81	122.45	-435.63	66.221	-51.062	-511.94	1620.2	102.12	-529.4	1413.4	80.713	-595.86	659.53	-105.44	-562.21	834.45	296.47	-475.73	407.5	4.4342	-623.84	747.87	-119.53	-435.48	226.58	1.0705	-456.17	317.06	3.603	-776.35	341.31	98.66	-280.55	68.359	3.3673	-731.6	723.28	231.47	-740.85	629.14	213.88
